<svg width="14" height="12" viewBox="0 0 14 12" fill="none" xmlns="http://www.w3.org/2000/svg">
<path d="M13.15 9.32852C13.15 8.07443 12.1249 7.05554 10.866 7.05554C9.60664 7.05554 8.58072 8.07434 8.58072 9.32852C8.58072 10.5827 9.60664 11.6015 10.866 11.6015C12.1249 11.6015 13.15 10.5826 13.15 9.32852ZM9.9093 9.32852C9.9093 8.80951 10.337 8.38411 10.866 8.38411C11.3942 8.38411 11.8214 8.80933 11.8214 9.32852C11.8214 9.84834 11.3943 10.2729 10.866 10.2729C10.337 10.2729 9.9093 9.84816 9.9093 9.32852ZM6.51938 9.35512C6.51938 8.98839 6.22182 8.69084 5.85509 8.69084H1.53438C1.16765 8.69084 0.870092 8.98839 0.870092 9.35512C0.870092 9.72186 1.16765 10.0194 1.53438 10.0194H5.85509C6.22182 10.0194 6.51938 9.72186 6.51938 9.35512ZM5.41928 2.67225C5.41928 1.4182 4.39417 0.398584 3.13464 0.398584C1.87583 0.398584 0.85 1.41817 0.85 2.67225C0.85 3.92646 1.87596 4.94455 3.13464 4.94455C4.39404 4.94455 5.41928 3.92643 5.41928 2.67225ZM2.17858 2.67225C2.17858 2.15243 2.60642 1.72716 3.13464 1.72716C3.66349 1.72716 4.0907 2.15237 4.0907 2.67225C4.0907 3.19126 3.66367 3.61597 3.13464 3.61597C2.60623 3.61597 2.17858 3.1912 2.17858 2.67225ZM12.7668 2.70887C12.7668 2.34214 12.4693 2.04458 12.1025 2.04458H7.78251C7.41578 2.04458 7.11822 2.34214 7.11822 2.70887C7.11822 3.0756 7.41578 3.37316 7.78251 3.37316H12.1025C12.4693 3.37316 12.7668 3.0756 12.7668 2.70887Z" fill="#666666" stroke="#666666" stroke-width="0.3"/>
</svg>
